<?xml version="1.0" encoding="UTF-8"?><svg id="Layer_2" xmlns="http://www.w3.org/2000/svg" viewBox="0 0 1689.03 367.4"><defs><style>.cls-1{fill:#fff;}</style></defs><g id="Layer_1-2"><g><path class="cls-1" d="M109.58,153.71c.57,12.81,10.39,23.64,23.64,23.64,12.37,0,24.21-10.87,23.64-23.64-.57-12.81-10.39-23.64-23.64-23.64-12.37,0-24.21,10.87-23.64,23.64Z"/><path class="cls-1" d="M315.61,153.3c.57,12.81,10.39,23.64,23.64,23.64,12.37,0,24.21-10.87,23.64-23.64-.57-12.81-10.39-23.64-23.64-23.64-12.37,0-24.21,10.87-23.64,23.64Z"/><path class="cls-1" d="M423.33,272.38c13.27-17.55,23.66-36.56,30.42-57.54,2.22-6.87,4.42-13.88,5.21-20.94,1.05-9.35,2.57-18.69,2.53-28.21-.06-12.2-.12-24.43-2.62-36.35-2.05-9.78-4.94-19.45-9.06-28.67-4.03-9-8.47-17.73-13.79-26.04-6.12-9.57-14.61-17.15-21.68-27.18-1.06,1.69-2.05,2.25-3.28,2.68-7.59,2.66-14.92,6.01-22.55,8.61-7.83,2.67-15.73,5.04-23.8,6.84-6.68,1.49-13.34,3.18-20.09,4.13-5.04,.71-10.03,2.14-15.08,2.24-8.02,.17-16,.84-24,1.1-7.46,.24-14.96,.34-22.39-.2-10.87-.79-21.84-.52-32.58-2.72-5-1.02-10.29-.54-15.08-1.95-7.5-2.2-15.29-2.53-22.82-4.6-5.32-1.46-10.75-2.81-16.06-4.36-7.73-2.25-15.32-5.05-22.87-7.88-6.7-2.51-13.23-5.47-19.91-8.05-7.41-2.87-14.21-6.88-21.12-10.69-12.75-7.04-24.53-15.49-35.5-25.03-2.98-2.59-5.84-5.29-9.23-7.58-3.7,2.69-7.25,5.44-10.85,8.12-11.54,8.57-21.25,18.95-30.67,29.66-3.44,3.9-7.07,7.73-9.89,12.07-5.06,7.8-10.36,15.47-14.63,23.78-4.8,9.33-9.62,18.69-12.73,28.69-3.04,9.77-5.98,19.58-7.28,29.88-1.55,12.33-2.38,24.61-1.63,37,.6,9.95,1.47,19.82,3.65,29.63,1.44,6.5,2.63,13.06,4.55,19.43,3.63,12.04,8.67,23.54,14.9,34.45,6.65,11.64,14.04,22.74,22.65,33.15,9.14,11.04,19.39,20.89,30.4,29.8,10.65,8.62,22.03,16.35,34.3,22.82,13.05,6.88,26.7,12.1,40.63,16.52,11.26,3.57,22.88,6.12,34.49,8.41,9.78,1.93,19.8,2.63,29.72,3.46,19.48,1.63,38.87-.69,58.15-3.45,3.72-.53,7.57-.99,11.16-1.95,9.18-2.47,18.41-4.76,27.31-8.29,17.54-6.96,34.72-14.41,50.55-24.98,13.16-8.79,25.54-18.42,37.04-29.2,8.67-8.12,16.39-17.12,23.56-26.61m-61.1-142.52c8.65,8.14,14.24,19.01,16.84,30.64,1.7,7.62,2.11,15.56,1.25,23.29-1.73,15.61-8.49,30.91-20.14,41.44-11.65,10.52-28.39,15.73-43.64,12-22.67-5.54-37.22-29.1-39.83-52.3-5.15-45.68,44.49-93.69,85.53-55.07ZM84.99,216.63c-11.13-15.32-14.16-35.69-10.2-54.2,7.65-35.77,47.75-61.33,80.26-35.95,10.72,8.37,17.75,20.73,21.08,34.01,.9,3.57,1.52,7.21,1.88,10.86,1.43,14.55-1.23,29.7-8.81,42.21-7.58,12.5-20.32,22.1-34.74,24.56-18.67,3.19-38.33-6.16-49.47-21.48Z"/></g><g><path class="cls-1" d="M840.11,103.97c26.94,0,48.78,15.65,58.98,35.32l44.42-21.84c-17.11-30.22-48.06-59.34-103.39-59.34-70.99,0-127.42,50.97-127.42,125.6s56.43,125.6,127.42,125.6c55.34,0,85.92-29.49,103.39-59.71l-44.42-21.48c-10.19,20.02-32.04,35.31-58.98,35.31-42.23,0-74.27-33.86-74.27-79.73s32.04-79.73,74.27-79.73Z"/><rect class="cls-1" x="984.62" y="62.11" width="46.24" height="242.82"/><path class="cls-1" d="M1169.55,124.72c-57.89,0-92.83,42.23-92.83,92.1s34.95,92.47,92.83,92.47,93.2-42.23,93.2-92.47-34.95-92.1-93.2-92.1Zm0,143.43c-28.76,0-44.78-23.66-44.78-51.33s16.02-50.97,44.78-50.97,45.14,23.66,45.14,50.97-16.38,51.33-45.14,51.33Z"/><path class="cls-1" d="M1383.23,124.72c-27.67,0-55.34,8.74-76.82,27.67l17.47,30.94c14.93-13.83,32.4-20.75,51.33-20.75,23.3,0,38.59,11.65,38.59,29.49v24.39c-11.65-14.2-32.4-21.48-55.7-21.48-28.03,0-61.16,14.92-61.16,56.06s33.13,58.25,61.16,58.25c22.94,0,43.69-8.37,55.7-22.57v18.2h46.24v-113.59c0-50.6-36.77-66.62-76.82-66.62Zm30.58,137.98c-7.65,10.19-22.21,15.29-37.13,15.29-18.2,0-33.13-9.47-33.13-25.85s14.93-26.57,33.13-26.57c14.93,0,29.49,5.1,37.13,15.29v21.84Z"/><polygon class="cls-1" points="1617.31 208.82 1686.84 129.09 1630.05 129.09 1563.43 207.36 1563.43 62.11 1517.19 62.11 1517.19 304.93 1563.43 304.93 1563.43 259.79 1584.54 237.22 1631.14 304.93 1689.03 304.93 1617.31 208.82"/></g></g></svg>